<svg width="152" height="229" viewBox="0 0 152 229" fill="none" xmlns="http://www.w3.org/2000/svg">
<path d="M0 0L152 137L128 229H0V0Z" fill="#6F6F6F"/>
<path d="M142.471 139.854L121.433 220.5H8.5V19.1035L142.471 139.854Z" stroke="black" stroke-opacity="0.55" stroke-width="17"/>
<path d="M0 0L40 36L0 47V0Z" fill="#949494" fill-opacity="0.14"/>
<path d="M22 41L61 55L0 102L22 41Z" fill="#9F9F9F" fill-opacity="0.28"/>
<path d="M61 55L102 92L88 139.5L61 55Z" fill="#D9D9D9" fill-opacity="0.07"/>
<path d="M88 139.5L102 92L152 137L88 139.5Z" fill="#D9D9D9" fill-opacity="0.17"/>
<path d="M68.5 182.5L88 139.5L138 190L68.5 182.5Z" fill="#D9D9D9" fill-opacity="0.43"/>
<path d="M64 213L15 179.5L68.5 182.5L64 213Z" fill="#D9D9D9" fill-opacity="0.25"/>
<path d="M15 179.5L0 102L88 139.5L15 179.5Z" fill="#D9D9D9" fill-opacity="0.09"/>
<path d="M0 229L15 179.5L87.5 229H0Z" fill="#D9D9D9" fill-opacity="0.1"/>
<path d="M64 213L138 190L128 229L64 213Z" fill="#D9D9D9" fill-opacity="0.16"/>
</svg>
